# xmcd
#
# Track frame offsets:
#	150
#	9369
#	23041
#	33107
#	43687
#	57948
#	69718
#	88026
#	102123
#	115062
#	126798
#	141066
#
# Disc length: 2084 seconds
#
# Revision: 0
# Processed by: cddbd v1.5.2PL0 Copyright (c) Steve Scherf et al.
# Submitted via: dBpowerAMP V4.0
#
DISCID=9408220c
DTITLE=Charley Pride - Country Hits
DYEAR=1900
DGENRE=Country
TTITLE0=Kiss An Angel Good Mornin'
TTITLE1=All I Have To Offer You (Is Me)
TTITLE2=Is Anybody Goin' To San Antone
TTITLE3=I'm Just Me
TTITLE4=(I'm So) Afraid Of Losing You Again
TTITLE5=It's Gonna Take A Little Bit Longer 
TTITLE6=Where Do I Put Her Memory
TTITLE7=I Can't Beleive That You're Stopped Loving Me
TTITLE8=She's Too Good To Be True
TTITLE9=She's Just An Old Love Turned Memory
TTITLE10=Amazing Love 
TTITLE11=Let Me Live
EXTD=
EXTT0=
EXTT1=
EXTT2=
EXTT3=
EXTT4=
EXTT5=
EXTT6=
EXTT7=
EXTT8=
EXTT9=
EXTT10=
EXTT11=
PLAYORDER=
